<?xml version="1.0" encoding="utf-8"?>
<!-- Generator: Adobe Illustrator 24.0.0, SVG Export Plug-In . SVG Version: 6.00 Build 0)  -->
<svg version="1.1" id="Layer_1" xmlns="http://www.w3.org/2000/svg" xmlns:xlink="http://www.w3.org/1999/xlink" x="0px" y="0px"
	 viewBox="0 0 428.4 163.5" style="enable-background:new 0 0 428.4 163.5;" xml:space="preserve">
<g>
	<path d="M143.4,100l-3.6,25.9h-19.3l6.5-47c0.5-3.7-1.3-4.8-2.4-4.8c-2.1,0-3.5,2-6.3,8.7c-0.1,1.2-1.1,2.2-2.3,2.2
		c-1.3,0-2.3-1-2.3-2.3c0-0.3,0-0.5,0.1-0.7l-0.2-0.1c3-9.6,7.6-17.5,19.9-17.5c10.6,0,14.1,6,12.7,14.2l-0.5,2.7h0.2
		c4.9-10.5,9-16.9,16.6-16.9c11.8,0,9.5,18.5-0.6,16.9C149.1,79.2,145,88.5,143.4,100z"/>
	<path d="M176.2,118.3c-0.6,4.8-5.2,8.8-10,8.8c-4.8,0-8.2-4-7.6-8.8c0.7-4.8,5.3-8.8,10.1-8.8S176.9,113.5,176.2,118.3z"/>
	<path d="M223.6,127.1c-25.3,0-39.7-18.1-36.1-43.4c3.5-25.3,22.9-43.4,48.2-43.4c12.1,0,22.3,4.2,26.8,7.2l-1.3,18.1H257
		c-1.1-9.7-7.6-19.3-22.1-19.3c-13.3,0-23.8,14.5-26.9,37.4c-3.3,22.9,3.1,37.4,16.4,37.4c4.5,0,8.6-0.8,12.4-2.4l2.5-18.1
		c1-6.6,0-8.4-5.9-9.6l0.5-3.6h33.8l-0.5,3.6c-7.4,1.2-7.6,3-8.6,9.6l-2.4,16.9C251,121.1,235.7,127.1,223.6,127.1z"/>
	<path d="M344,109.6c-3,9.6-7.6,17.5-19.9,17.5c-10.6,0-14.1-6-12.7-14.2l0.5-2.7h-0.2c-4.9,10.5-13.4,16.9-22.2,16.9
		c-8.1,0-13.3-4.8-11.3-18.1l4.2-30.2c0.5-3.7-1.3-4.8-2.4-4.8c-2.2,0-3.6,2.2-6.6,9.6l0,0c-0.3,0.8-1.2,1.4-2.1,1.4
		c-1.3,0-2.3-1-2.3-2.3c0-0.4,0.1-0.7,0.2-1c3-9.6,7.6-17.4,19.9-17.4c10.6,0,13.9,6,12.7,14.5l-4.1,28.9c-0.7,5.4-0.1,7.2,2.9,7.2
		c4.9,0,12.3-12.1,13.9-23.5l3.6-25.9h19.3l-6.5,47c-0.5,3.7,1.3,4.8,2.4,4.8c2.1,0,3.6-2.1,6.5-9.2c0-0.1,0.1-0.2,0.1-0.3
		c0,0,0,0,0-0.1l0,0c0.4-0.7,1.1-1.2,2-1.2c1.3,0,2.3,1,2.3,2.3C344.1,109.2,344,109.4,344,109.6L344,109.6z"/>
	<path d="M402.5,79.5c-0.6,4.2-3.1,8.4-10.4,8.4c-6,0-6.9-3.7-6.4-6.3c1.8-8.8-0.8-11.2-5.7-11.2c-5.9,0-11,7.6-12.9,21.6
		c-2.2,15.8,4,21.2,12.4,21.2c7.9,0,13-3.2,16.1-7c0.5-0.6,0.7-1.1,0.8-1.3c0.1-0.8,0.8-1.4,1.7-1.4c0.9,0,1.7,0.8,1.7,1.7
		c0,0.1,0,0.2,0,0.2h0.1c0,0.1-0.1,0.2-0.1,0.3c0,0.1,0,0.1-0.1,0.2c-3.9,9.6-13.8,21.2-28.6,21.2c-19.9,0-25.9-14.5-23.6-30.8
		c2.9-20.5,20-32,34-32C396.6,64.4,403.6,71.8,402.5,79.5z"/>
	<path d="M403.7,46.6l-19.8,13l-2.2-2.3l14.5-18.2C401.9,31.8,412.5,40.8,403.7,46.6z"/>
	<path d="M70.5,41.5H33.1l-0.5,3.6c4.6,1.2,6.8,3,5.8,9.6l-8.1,57.9c-1,6.6-3.6,8.4-8.6,9.6l-0.5,3.6h37.4c25.9,0,47-17.4,50.5-42.2
		C113,57.2,96.5,41.5,70.5,41.5z M88.7,83.7c-2.8,19.1-12.2,36.8-29.3,36.8H48.6l10.4-73.6h9.6C86.4,46.9,91.9,61.4,88.7,83.7z"/>
</g>
</svg>
